<?xml version="1.0" standalone="no"?>
<!DOCTYPE svg PUBLIC "-//W3C//DTD SVG 20010904//EN"
 "http://www.w3.org/TR/2001/REC-SVG-20010904/DTD/svg10.dtd">
<svg version="1.0" xmlns="http://www.w3.org/2000/svg"
 width="512.000000pt" height="512.000000pt" viewBox="0 0 512.000000 512.000000"
 preserveAspectRatio="xMidYMid meet">

<g transform="translate(0.000000,512.000000) scale(0.100000,-0.100000)"
fill="#000000" stroke="none">
<path d="M2315 5109 c-798 -81 -1501 -518 -1927 -1196 -487 -774 -516 -1777
-75 -2578 119 -218 267 -413 449 -592 406 -402 895 -641 1483 -725 119 -17
512 -16 635 1 751 104 1396 504 1812 1126 211 316 352 694 410 1100 17 118 17
512 0 630 -59 416 -191 769 -410 1099 -92 140 -185 254 -315 385 -399 403
-894 653 -1462 737 -122 18 -477 26 -600 13z m461 -240 c677 -66 1280 -416
1681 -977 312 -437 465 -1010 412 -1548 -66 -677 -416 -1280 -977 -1681 -437
-312 -1010 -465 -1548 -412 -1022 99 -1861 857 -2058 1859 -173 877 169 1768
885 2305 283 212 594 351 939 419 229 45 448 57 666 35z"/>
<path d="M2320 4515 c-453 -55 -872 -267 -1189 -601 -405 -427 -595 -1001
-526 -1584 107 -907 818 -1618 1725 -1725 604 -72 1187 131 1621 564 358 357
557 814 576 1326 35 946 -621 1789 -1548 1989 -214 46 -444 57 -659 31z m585
-255 c558 -120 1019 -493 1245 -1010 94 -214 140 -441 140 -690 0 -389 -112
-727 -345 -1040 -219 -292 -552 -524 -898 -624 -182 -53 -247 -61 -487 -61
-196 0 -239 3 -333 23 -350 74 -644 232 -891 478 -262 261 -437 606 -490 966
-20 135 -21 380 -1 514 54 363 224 699 487 964 252 253 576 425 914 484 49 9
100 18 114 20 14 2 120 3 235 1 168 -2 230 -7 310 -25z"/>
<path d="M2830 2658 c-289 -369 -530 -678 -536 -686 -9 -12 -57 26 -268 214
-142 126 -263 230 -269 231 -7 1 -45 -36 -86 -83 l-74 -85 24 -24 c13 -12 174
-156 358 -319 267 -237 337 -294 346 -284 7 7 245 312 531 678 285 366 557
715 606 777 l87 112 -88 70 c-49 39 -93 71 -98 71 -5 0 -245 -302 -533 -672z"/>
</g>
</svg>
